# xmcd
#
# Track frame offsets:
#	150
#	14464
#	27517
#	45483
#	58576
#	73830
#	87423
#	104298
#	120925
#	134397
#	150024
#	164310
#	178981
#	195840
#
# Disc length: 2793 seconds
#
# Revision: 1
# Processed by: cddbd v1.4PL0 Copyright (c) Steve Scherf et al.
# Submitted via: audiograbber 1.81.03
#
DISCID=af0ae70e
DTITLE=Phillip Simon Goletz - Tausend Träume von Zuhaus
DYEAR=1998
DGENRE=Country
TTITLE0=Tausend Träumr von Zuhaus
TTITLE1=Radio Cowboy
TTITLE2=Seitdem ich weiß, du liebst mich
TTITLE3=Nur ein bisschen Träumen
TTITLE4=Glatteis
TTITLE5=Mein Opa war ein Harley-Fan
TTITLE6=Kleiner Mann auf großer Reise
TTITLE7=Hey Kumpel
TTITLE8=Lazy Sunday
TTITLE9=Manche Engel haben keine Flügel
TTITLE10=Nashville, Sommerwind und du
TTITLE11=Oh Lady
TTITLE12=Harte Schale, weicher Kern
TTITLE13=Für einen alten Freund
EXTD=
EXTT0=
EXTT1=
EXTT2=
EXTT3=
EXTT4=
EXTT5=
EXTT6=
EXTT7=
EXTT8=
EXTT9=
EXTT10=
EXTT11=
EXTT12=
EXTT13=
PLAYORDER=
